<?xml version="1.0" standalone="no"?>
<!DOCTYPE svg PUBLIC "-//W3C//DTD SVG 20010904//EN"
 "http://www.w3.org/TR/2001/REC-SVG-20010904/DTD/svg10.dtd">
<svg version="1.0" xmlns="http://www.w3.org/2000/svg"
 width="487.000000pt" height="400.000000pt" viewBox="0 0 487.000000 400.000000"
 preserveAspectRatio="xMidYMid meet">

<g transform="translate(0.000000,400.000000) scale(0.100000,-0.100000)"
fill="#000000" stroke="none">
<path d="M3966 3907 c-10 -8 -29 -12 -42 -9 -16 3 -26 -1 -30 -12 -3 -9 -17
-16 -30 -16 -30 0 -32 -27 -5 -86 22 -49 40 -63 52 -41 7 11 24 16 62 16 28 0
65 5 81 11 16 6 36 8 46 5 17 -5 40 -65 40 -104 0 -30 34 -24 38 6 2 14 8 20
18 16 11 -4 14 6 14 47 0 105 -52 160 -150 160 -31 0 -61 5 -66 10 -7 7 -16 6
-28 -3z"/>
<path d="M1865 3825 c-210 -81 -206 -77 -186 -160 l9 -40 1 43 1 43 193 94
c105 52 188 94 182 94 -5 -1 -95 -34 -200 -74z"/>
<path d="M4017 3733 c-3 -5 5 -8 18 -8 13 0 21 3 18 8 -2 4 -10 7 -18 7 -8 0
-16 -3 -18 -7z"/>
<path d="M3915 3720 c-7 -12 2 -12 30 0 19 8 19 9 -2 9 -12 1 -25 -3 -28 -9z"/>
<path d="M4010 3680 c0 -5 5 -10 10 -10 6 0 10 5 10 10 0 6 -4 10 -10 10 -5 0
-10 -4 -10 -10z"/>
<path d="M3920 3670 c0 -5 5 -10 10 -10 6 0 10 5 10 10 0 6 -4 10 -10 10 -5 0
-10 -4 -10 -10z"/>
<path d="M3971 3644 c0 -11 3 -14 6 -6 3 7 2 16 -1 19 -3 4 -6 -2 -5 -13z"/>
<path d="M3967 3609 c7 -7 15 -10 18 -7 3 3 -2 9 -12 12 -14 6 -15 5 -6 -5z"/>
<path d="M4038 3503 c-25 -3 -38 -9 -38 -19 0 -19 28 -17 70 6 19 11 28 19 20
18 -8 -1 -32 -3 -52 -5z"/>
<path d="M1780 3478 c-24 -13 -53 -36 -64 -51 -21 -28 -21 -34 -24 -1323 -3
-1435 -7 -1338 62 -1387 31 -22 35 -22 451 -25 l419 -3 -24 26 -23 25 -385 0
-384 0 -34 34 -34 34 0 1286 0 1286 29 32 29 33 159 0 158 0 3 -30 c7 -55 6
-55 258 -55 229 0 233 0 248 22 9 12 16 33 16 45 0 23 1 23 146 23 120 0 151
-3 175 -17 62 -37 59 20 59 -1122 0 -573 3 -1041 8 -1041 32 1 32 2 32 1062 0
602 -4 1056 -9 1070 -13 34 -63 77 -102 88 -20 6 -253 10 -579 10 l-546 0 -44
-22z"/>
<path d="M3829 3418 c-41 -11 -102 -68 -81 -75 11 -4 42 -64 42 -82 0 -4 -23
-26 -52 -50 l-52 -42 -42 42 c-31 30 -41 46 -34 55 6 6 8 19 4 28 -3 9 -1 16
5 16 6 0 11 7 11 16 0 10 6 14 15 10 8 -3 15 -1 15 4 0 18 24 10 52 -17 31
-30 33 -26 17 47 l-11 51 -81 -3 c-80 -3 -82 -4 -79 -27 1 -13 -4 -29 -12 -35
-7 -6 -30 -91 -50 -189 l-37 -177 20 -34 c23 -36 155 -166 170 -166 5 0 32 35
62 77 29 42 54 72 56 67 2 -5 6 -56 11 -114 l7 -105 70 -17 c179 -43 369 -8
521 94 74 49 70 35 80 336 l7 202 -41 39 c-42 40 -103 61 -175 61 -26 0 -35
-6 -47 -33 -19 -40 -52 -57 -113 -57 -61 0 -102 21 -115 60 -10 28 -14 30 -59
29 -26 -1 -64 -5 -84 -11z"/>
<path d="M1461 3214 c0 -11 3 -14 6 -6 3 7 2 16 -1 19 -3 4 -6 -2 -5 -13z"/>
<path d="M1647 2939 c7 -7 15 -10 18 -7 3 3 -2 9 -12 12 -14 6 -15 5 -6 -5z"/>
<path d="M2556 2850 c-37 -44 -96 -105 -133 -134 -71 -60 -190 -126 -211 -119
-20 8 -204 -60 -209 -77 -3 -8 -19 -24 -36 -35 -47 -30 -77 -90 -77 -153 0
-110 73 -186 183 -189 32 -1 61 -4 64 -7 3 -3 16 -3 28 0 20 5 25 -1 43 -54
59 -175 95 -262 111 -267 23 -7 90 21 98 41 3 8 -20 86 -51 174 -30 88 -51
160 -46 160 5 0 16 8 25 17 10 9 47 22 84 29 115 23 202 18 423 -22 36 -6 37
-6 49 34 25 85 -38 336 -129 515 -48 94 -107 167 -135 167 -8 0 -45 -36 -81
-80z m213 -239 c11 -20 22 -53 26 -73 7 -35 5 -38 -42 -72 l-48 -35 -12 22
c-19 33 -66 178 -60 183 7 7 100 21 110 17 4 -3 16 -21 26 -42z"/>
<path d="M980 2544 c-102 -44 -151 -170 -101 -262 16 -31 18 -32 32 -16 23 28
90 54 142 54 50 0 96 -18 134 -52 l21 -20 16 30 c26 50 21 137 -10 190 -45 76
-153 111 -234 76z m118 -40 c51 -35 46 -111 -9 -139 -39 -21 -53 -19 -88 11
-80 67 12 188 97 128z"/>
<path d="M3186 2517 c3 -10 9 -15 12 -12 3 3 0 11 -7 18 -10 9 -11 8 -5 -6z"/>
<path d="M3216 2457 c3 -10 9 -15 12 -12 3 3 0 11 -7 18 -10 9 -11 8 -5 -6z"/>
<path d="M3615 2392 c-139 -65 -91 -265 62 -265 76 0 135 60 135 138 0 104
-103 171 -197 127z m128 -128 c11 -12 -16 -53 -42 -64 -45 -18 -101 15 -101
59 0 12 132 16 143 5z"/>
<path d="M3281 2124 c0 -11 3 -14 6 -6 3 7 2 16 -1 19 -3 4 -6 -2 -5 -13z"/>
<path d="M3271 2054 c0 -11 3 -14 6 -6 3 7 2 16 -1 19 -3 4 -6 -2 -5 -13z"/>
<path d="M3225 1929 c-4 -6 -5 -12 -2 -15 2 -3 7 2 10 11 7 17 1 20 -8 4z"/>
<path d="M4300 1892 c-59 -32 -82 -87 -90 -216 -4 -61 -13 -124 -19 -139 -19
-48 -14 -77 12 -77 49 1 110 19 119 34 5 9 17 16 27 16 9 0 26 7 37 15 18 15
17 16 -13 10 -71 -14 -117 43 -118 144 l0 54 59 14 c33 7 65 18 73 25 7 6 15
9 16 7 2 -2 13 -18 26 -36 12 -18 34 -38 49 -45 34 -17 41 -52 13 -70 -17 -10
-21 -23 -21 -69 0 -69 15 -85 90 -95 30 -4 65 -11 77 -15 50 -19 39 74 -21
171 -19 31 -44 88 -54 128 -23 84 -42 116 -85 142 -42 26 -130 27 -177 2z"/>
<path d="M461 1833 c-18 -9 -45 -35 -60 -57 -23 -36 -26 -49 -26 -132 0 -82
-2 -92 -20 -100 -32 -14 -47 -56 -34 -93 20 -56 88 -70 133 -27 34 31 34 96 0
96 -8 0 -20 12 -26 26 -13 28 -14 27 58 78 14 10 32 33 40 52 13 32 15 33 41
19 29 -15 158 -21 166 -7 8 11 -19 81 -40 104 -47 53 -164 74 -232 41z"/>
<path d="M3146 1803 c-6 -14 -5 -15 5 -6 7 7 10 15 7 18 -3 3 -9 -2 -12 -12z"/>
<path d="M4260 1710 c0 -5 5 -10 10 -10 6 0 10 5 10 10 0 6 -4 10 -10 10 -5 0
-10 -4 -10 -10z"/>
<path d="M4350 1700 c0 -5 5 -10 10 -10 6 0 10 5 10 10 0 6 -4 10 -10 10 -5 0
-10 -4 -10 -10z"/>
<path d="M678 1653 c7 -3 16 -2 19 1 4 3 -2 6 -13 5 -11 0 -14 -3 -6 -6z"/>
<path d="M566 1641 c-4 -5 3 -7 14 -4 23 6 26 13 6 13 -8 0 -17 -4 -20 -9z"/>
<path d="M690 1630 c0 -5 5 -10 10 -10 6 0 10 5 10 10 0 6 -4 10 -10 10 -5 0
-10 -4 -10 -10z"/>
<path d="M590 1620 c0 -5 5 -10 11 -10 5 0 7 5 4 10 -3 6 -8 10 -11 10 -2 0
-4 -4 -4 -10z"/>
<path d="M2080 1550 c-18 -18 -20 -33 -20 -134 0 -91 3 -118 16 -130 13 -14
52 -16 269 -16 l253 0 -14 47 c-20 66 -18 81 15 114 35 34 68 37 105 8 l26
-20 0 60 c0 94 10 91 -337 91 -280 0 -294 -1 -313 -20z m430 -38 c0 -14 -141
-162 -154 -162 -7 0 -27 16 -46 35 -38 39 -25 47 20 13 l29 -21 67 71 c61 67
84 84 84 64z"/>
<path d="M3935 1520 c-9 -14 4 -70 16 -70 5 0 9 -8 9 -17 0 -13 6 -11 29 11
17 17 31 23 35 17 4 -5 13 -8 20 -5 14 5 24 -17 32 -67 2 -19 -5 -34 -26 -54
-17 -17 -26 -31 -20 -35 6 -4 -7 -55 -35 -134 -25 -71 -45 -133 -44 -140 0 -6
20 43 43 109 l44 120 47 3 47 3 -6 52 c-4 29 -13 77 -20 107 -8 30 -17 67 -20
83 -6 26 -8 27 -76 27 -38 0 -72 -5 -75 -10z"/>
<path d="M546 1428 c7 -11 67 -38 85 -38 28 0 -2 25 -44 36 -29 7 -44 8 -41 2z"/>
<path d="M912 1408 c-5 -7 -13 -33 -17 -56 -6 -36 -10 -43 -26 -39 -18 5 -44
-15 -33 -26 3 -3 8 -26 10 -50 4 -41 2 -46 -27 -65 l-32 -20 -49 30 c-27 17
-52 37 -55 44 -5 13 52 104 65 104 5 0 13 -5 20 -12 9 -9 15 -9 24 0 16 16 11
19 -52 26 l-56 7 -9 -33 c-14 -46 -63 -70 -134 -65 -46 3 -59 9 -83 36 -15 17
-28 38 -28 46 0 18 -6 18 -82 5 -78 -12 -124 -36 -148 -75 -24 -38 -26 -123
-10 -331 l10 -129 46 -42 c60 -56 190 -119 284 -139 80 -17 231 -14 301 6 l36
10 12 128 c6 70 11 133 11 140 0 25 19 10 91 -73 41 -47 79 -85 85 -85 16 0
123 111 154 161 l27 45 -48 119 c-27 66 -52 127 -57 136 -6 15 -15 14 -85 -13
l-79 -30 -33 32 c-25 24 -33 40 -32 66 1 19 5 34 9 34 4 0 8 6 8 14 0 7 14 16
32 20 26 5 37 1 61 -21 17 -16 26 -22 22 -14 -5 9 -2 18 7 25 8 6 18 27 22 47
8 45 0 49 -89 49 -38 0 -67 -5 -73 -12z"/>
<path d="M4540 1204 c1 -21 78 -308 79 -292 1 20 -66 288 -74 296 -3 3 -5 1
-5 -4z"/>
<path d="M4083 1125 c0 -22 2 -30 4 -17 2 12 2 30 0 40 -3 9 -5 -1 -4 -23z"/>
<path d="M3160 564 c-422 -134 -460 -149 -460 -190 0 -19 70 -206 83 -223 32
-39 42 -37 828 203 92 28 119 48 119 87 0 22 -36 145 -61 210 -10 25 -46 50
-72 48 -7 0 -203 -61 -437 -135z"/>
<path d="M1085 430 c-70 -21 -120 -112 -104 -188 11 -52 22 -56 64 -28 58 40
147 34 194 -13 19 -19 20 -19 35 14 22 46 20 93 -7 139 -36 64 -114 96 -182
76z m95 -50 c27 -27 25 -56 -5 -85 -28 -29 -51 -31 -83 -9 -27 18 -30 69 -5
96 21 24 68 23 93 -2z"/>
</g>
</svg>
